<svg xmlns="http://www.w3.org/2000/svg" width="20" height="20" viewBox="0 0 20 20"><defs><style>.a{fill:#666;}.b,.d{fill:none;}.b{stroke:#707070;opacity:0;}.c{stroke:none;}</style></defs><g transform="translate(-29 -711)"><path class="a" d="M32.672,20.133a7.249,7.249,0,0,0,2.109,0,4.4,4.4,0,0,1,4.588-2.655,7.15,7.15,0,0,0,1.061-1.829,4.4,4.4,0,0,1,0-5.3,7.157,7.157,0,0,0-1.06-1.829A4.4,4.4,0,0,1,34.78,5.864a7.184,7.184,0,0,0-2.109,0,4.4,4.4,0,0,1-4.587,2.655,7.145,7.145,0,0,0-1.061,1.829,4.4,4.4,0,0,1,0,5.3,7.148,7.148,0,0,0,1.061,1.83,4.4,4.4,0,0,1,4.587,2.655Zm1.054,1.473a8.706,8.706,0,0,1-1.708-.17l-.4-.082-.124-.395a3.008,3.008,0,0,0-3.533-2.046l-.4.088-.272-.307a8.546,8.546,0,0,1-1.715-2.963l-.13-.391.278-.3a3.008,3.008,0,0,0,0-4.081l-.278-.3.13-.391A8.549,8.549,0,0,1,27.284,7.3l.272-.307.4.088A3.01,3.01,0,0,0,31.49,5.037l.124-.394.4-.082a8.693,8.693,0,0,1,3.415,0l.4.082.124.394a3.009,3.009,0,0,0,3.533,2.045l.4-.088.272.308a8.552,8.552,0,0,1,1.716,2.963l.131.39-.279.3a3.009,3.009,0,0,0,0,4.083l.278.3-.13.391a8.55,8.55,0,0,1-1.716,2.962L39.9,19l-.4-.088a3.01,3.01,0,0,0-3.534,2.046l-.123.394-.4.082a8.675,8.675,0,0,1-1.708.17Zm0-10.7A2.094,2.094,0,1,0,35.82,13,2.1,2.1,0,0,0,33.726,10.9Zm0,5.584A3.49,3.49,0,1,1,37.216,13a3.493,3.493,0,0,1-3.49,3.49Z" transform="translate(5.274 708.033)"/><g class="b" transform="translate(29 711)"><rect class="c" width="20" height="20"/><rect class="d" x="0.5" y="0.5" width="19" height="19"/></g></g></svg>