<svg xmlns="http://www.w3.org/2000/svg" width="18" height="18" viewBox="0 0 18 18"><defs><style>.a{fill:none;}.b{fill:#ffb55b;}</style></defs><path class="a" d="M0,0H18V18H0Z"/><path class="b" d="M9.5,17A7.5,7.5,0,1,1,17,9.5,7.5,7.5,0,0,1,9.5,17ZM5.76,14.192a6,6,0,0,0,7.615-.111,5.25,5.25,0,0,0-7.615.111ZM4.712,13.115a6.751,6.751,0,0,1,9.679-.139,6,6,0,1,0-9.679.14ZM9.5,10.25a3,3,0,1,1,3-3A3,3,0,0,1,9.5,10.25Zm0-1.5A1.5,1.5,0,1,0,8,7.25,1.5,1.5,0,0,0,9.5,8.75Z" transform="translate(-0.5 -0.5)"/></svg>