<?xml version="1.0" encoding="UTF-8"?>
<svg width="24px" height="24px" viewBox="0 0 24 24" version="1.1" xmlns="http://www.w3.org/2000/svg" xmlns:xlink="http://www.w3.org/1999/xlink">
    <!-- Generator: Sketch 64 (93537) - https://sketch.com -->
    <title>星星</title>
    <desc>Created with Sketch.</desc>
    <g id="主页面" stroke="none" stroke-width="1" fill="none" fill-rule="evenodd">
        <g id="随机练习-解析" transform="translate(-341.000000, -54.000000)" fill-rule="nonzero">
            <g id="星星" transform="translate(341.000000, 54.000000)">
                <rect id="矩形" fill="#000000" opacity="0" x="0" y="0" width="23.011236" height="23.011236"></rect>
                <path d="M13.47641,4.92802913 L14.0247908,6.02479083 C14.657538,7.2902851 15.9230322,8.17613109 17.3572591,8.3870468 L18.5805702,8.55577937 C19.9304307,8.76669509 20.4788116,10.4118376 19.5085993,11.3398668 L18.6227533,12.2257127 C17.5681748,13.2381082 17.1041602,14.672335 17.3572591,16.0643787 L17.5681748,17.2876898 C17.7369074,18.3422684 16.8932445,19.1859312 15.9230322,19.1859312 C15.6699334,19.1859312 15.4168345,19.1437481 15.1637357,18.9750155 L14.066974,18.3844515 C13.3920437,18.0891695 12.7171134,17.920437 12,17.920437 C11.2828866,17.920437 10.6079563,18.0891695 9.93302602,18.4266347 L8.83626432,19.0171987 C8.58316547,19.1437481 8.33006661,19.2281144 8.07696776,19.2281144 C7.10675548,19.2281144 6.26309265,18.3844515 6.43182522,17.329873 L6.64274094,16.1065618 C6.89583978,14.7145181 6.43182522,13.2802913 5.37724667,12.2678959 L4.49140068,11.3820499 C3.52118841,10.4540208 4.06956926,8.80887822 5.41942981,8.5979625 L6.64274094,8.42922993 C8.07696778,8.21831421 9.3002789,7.33246823 9.97520917,6.06697398 L10.52359,4.97021228 C10.818872,4.29528199 11.409436,4 12,4 C12.590564,4 13.181128,4.29528199 13.47641,4.92802913 Z" id="路径" fill="#FFB55B"></path>
            </g>
        </g>
    </g>
</svg>