<?xml version="1.0" encoding="UTF-8"?>
<svg width="24px" height="24px" viewBox="0 0 24 24" version="1.1" xmlns="http://www.w3.org/2000/svg" xmlns:xlink="http://www.w3.org/1999/xlink">
    <!-- Generator: Sketch 64 (93537) - https://sketch.com -->
    <title>店铺</title>
    <desc>Created with Sketch.</desc>
    <g id="主页面" stroke="none" stroke-width="1" fill="none" fill-rule="evenodd">
        <g id="商品详情-参与拼团" transform="translate(-10.000000, -732.000000)">
            <g id="店铺" transform="translate(10.000000, 732.000000)">
                <rect id="矩形" fill="#000000" fill-rule="nonzero" opacity="0" x="0" y="0" width="24" height="24"></rect>
                <path d="M18.25,11.75 L5.75,11.75 L5.75,17 C5.75,17.6213203 6.00183983,18.1838203 6.40900974,18.5909903 C6.81617966,18.9981602 7.37867966,19.25 8,19.25 L16,19.25 C16.6213203,19.25 17.1838203,18.9981602 17.5909903,18.5909903 C17.9981602,18.1838203 18.25,17.6213203 18.25,17 L18.25,11.75 Z" id="矩形" stroke="#999999" stroke-width="1.5" fill="#FFFFFF"></path>
                <path d="M13.7562088,13.9998765 C13.124827,14.0040183 12.5089592,13.8006237 12,13.4198766 C11.4910705,13.8006435 10.8752123,14.0040408 10.243843,13.9998765 C9.6192656,14.0038197 9.00970715,13.8048366 8.50364691,13.4318103 C7.99765216,13.8048105 7.38816754,14.0037931 6.76365805,13.9998765 C5.23732658,13.9998765 4,12.860259 4,11.4541394 C4,11.4075134 4.00134736,11.3612043 4.00404205,11.3151063 C4.00134185,11.2699232 4,11.2246667 4,11.1793998 L4.79285911,6.19765261 C4.79285911,4.98400385 6.04910028,4 7.24320825,4 L16.7566363,4 C17.9507443,4 19.2070891,4.98400385 19.2070891,6.19765261 L20,11.1793998 C20,11.2249698 19.9986008,11.2702757 19.9958543,11.3151063 C19.9986008,11.3612043 20,11.407619 20,11.4541394 C20,12.860259 18.7627771,13.9998765 17.2364974,13.9998765 C16.6119261,14.0038857 16.0023644,13.8048957 15.4963531,13.4318103 C14.9903237,13.8048591 14.3807741,14.0038452 13.7562088,13.9998765 Z" id="路径" fill="#222222" fill-rule="nonzero"></path>
            </g>
        </g>
    </g>
</svg>