<svg xmlns="http://www.w3.org/2000/svg" width="18" height="18" viewBox="0 0 18 18"><defs><style>.a{fill:none;}.b{fill:#fff;}</style></defs><path class="a" d="M0,0H18V18H0Z"/><path class="b" d="M2.75,8.25H2v-4.5A.753.753,0,0,1,2.744,3H16.256A.742.742,0,0,1,17,3.752v4.5h-.75v7.5a.747.747,0,0,1-.745.749H3.495a.747.747,0,0,1-.745-.749Zm12,0H4.25V15h10.5ZM3.5,4.5V6.75h12V4.5Z" transform="translate(-0.5 -0.75)"/><path class="b" d="M-3172.157-2374.083l-.015.015-2.828-2.83,1.06-1.059.987.987V-2380h1.5v3.121l1.078-1.078,1.06,1.059-2.828,2.83Z" transform="translate(3181.202 2388)"/></svg>