<svg id="组件_27_2" data-name="组件 27 – 2" xmlns="http://www.w3.org/2000/svg" width="24" height="24" viewBox="0 0 24 24">
  <defs>
    <style>
      .cls-1 {
        fill: #f89e40;
        opacity: 0;
      }

      .cls-2, .cls-3 {
        fill: rgba(248,158,64,0);
        stroke: #d1d1d1;
        stroke-linejoin: round;
      }

      .cls-3, .cls-5 {
        stroke-linecap: round;
      }

      .cls-4 {
        fill: #fff;
      }

      .cls-4, .cls-5 {
        stroke: #e9323e;
      }

      .cls-5, .cls-7 {
        fill: none;
      }

      .cls-6 {
        stroke: none;
      }
    </style>
  </defs>
  <g id="组_163" data-name="组 163">
    <circle id="椭圆_3" data-name="椭圆 3" class="cls-1" cx="12" cy="12" r="12"/>
    <g id="组_134" data-name="组 134" transform="translate(3.948 5.405)">
      <g id="组_136" data-name="组 136" transform="translate(0 0)">
        <path id="路径_37" data-name="路径 37" class="cls-2" d="M4,11.548V7H20.082v4.548a2.218,2.218,0,0,0,0,4.171v4.548H4V15.719a2.218,2.218,0,0,0,0-4.171Z" transform="translate(-4 -7)"/>
        <g id="组_137" data-name="组 137" transform="translate(6.29 3.7)">
          <g id="组_135" data-name="组 135" transform="translate(0 0)">
            <path id="路径_40" data-name="路径 40" class="cls-3" d="M0,2.467V0" transform="translate(1.744 1.744) rotate(135)"/>
            <path id="路径_41" data-name="路径 41" class="cls-3" d="M0,0V2.467" transform="translate(3.489 0) rotate(45)"/>
          </g>
          <path id="路径_42" data-name="路径 42" class="cls-3" d="M0,0V3.289" transform="translate(3.389 1.879) rotate(90)"/>
          <path id="路径_44" data-name="路径 44" class="cls-3" d="M0,0V3.289" transform="translate(1.744 2.29)"/>
          <path id="路径_43" data-name="路径 43" class="cls-3" d="M0,0V3.289" transform="translate(3.389 3.524) rotate(90)"/>
        </g>
      </g>
    </g>
    <g id="组_164" data-name="组 164" transform="translate(17 3)">
      <g id="椭圆_10" data-name="椭圆 10" class="cls-4" transform="translate(0)">
        <circle class="cls-6" cx="3" cy="3" r="3"/>
        <circle class="cls-7" cx="3" cy="3" r="2.5"/>
      </g>
      <line id="直线_5" data-name="直线 5" class="cls-5" x2="3" y2="3" transform="translate(1.5 1.5)"/>
    </g>
  </g>
</svg>
