<svg xmlns="http://www.w3.org/2000/svg" width="18" height="18" viewBox="0 0 18 18"><defs><style>.a{fill:none;}.b{fill:#e9323e;}</style></defs><path class="a" d="M0,0H18V18H0Z"/><path class="b" d="M11.013,2.278a3.211,3.211,0,0,0,0,1.278H3.605L8.431,7.815l3.227-2.889a3.213,3.213,0,0,0,1,.821L8.438,9.526,3.278,4.973v7.533H13.506V6.05a3.211,3.211,0,0,0,1.278,0v7.1a.639.639,0,0,1-.639.639H2.639A.639.639,0,0,1,2,13.145V2.918a.639.639,0,0,1,.639-.639Zm3.132,2.557a1.918,1.918,0,1,1,1.918-1.918A1.918,1.918,0,0,1,14.145,4.835Z" transform="translate(0.719 0.858)"/></svg>