<svg xmlns="http://www.w3.org/2000/svg" width="22" height="22" viewBox="0 0 22 22"><defs><style>.a{fill:none;}.b{fill:#333;}</style></defs><g transform="translate(-340 -76)"><rect class="a" width="22" height="22" transform="translate(340 76)"/><path class="b" d="M136.494,91.142a1.965,1.965,0,0,1-.974-.258l-6.7-3.839a1.934,1.934,0,0,1-.974-1.673V77.694a1.934,1.934,0,0,1,.974-1.673l6.7-3.839a1.965,1.965,0,0,1,1.947,0l6.7,3.839a1.934,1.934,0,0,1,.974,1.673v7.678a1.934,1.934,0,0,1-.974,1.673l-6.7,3.839a1.953,1.953,0,0,1-.974.258Zm0-17.874a.591.591,0,0,0-.3.078l-6.7,3.84a.587.587,0,0,0-.3.509v7.678a.588.588,0,0,0,.3.509l6.7,3.839a.6.6,0,0,0,.592,0l6.7-3.839a.587.587,0,0,0,.3-.509V77.694a.588.588,0,0,0-.3-.509l-6.7-3.839a.606.606,0,0,0-.3-.078Z" transform="translate(214.154 5.467)"/><path class="b" d="M380.463,346.206a3.631,3.631,0,1,1,3.631-3.631A3.635,3.635,0,0,1,380.463,346.206Zm0-5.808a2.178,2.178,0,1,0,2.178,2.178A2.18,2.18,0,0,0,380.463,340.4Z" transform="translate(-29.463 -255.575)"/></g></svg>