<?xml version="1.0" encoding="UTF-8"?>
<svg width="24px" height="25px" viewBox="0 0 24 25" version="1.1" xmlns="http://www.w3.org/2000/svg" xmlns:xlink="http://www.w3.org/1999/xlink">
    <!-- Generator: Sketch 64 (93537) - https://sketch.com -->
    <title>下载</title>
    <desc>Created with Sketch.</desc>
    <g id="主页面" stroke="none" stroke-width="1" fill="none" fill-rule="evenodd">
        <g id="观看课程" transform="translate(-51.000000, -731.000000)" fill-rule="nonzero">
            <g id="下载" transform="translate(51.000000, 731.000000)">
                <rect id="矩形" fill="#000000" opacity="0" x="0" y="0" width="24" height="24"></rect>
                <path d="M13.0301339,4.75 C11.7467666,4.75 10.5526231,5.11247163 9.55710445,5.73700521 C8.53997393,6.37509691 7.72990781,7.286579 6.85819527,8.74640306 C5.92508565,9.1444427 5.13475505,9.7902875 4.58389106,10.5972133 C4.05682546,11.3692784 3.75,12.289177 3.75,13.2771084 C3.75,14.6426822 4.33657175,15.8772032 5.27920333,16.7729671 C6.23729942,17.6834267 7.56220565,18.245221 9.02477413,18.250004 L16.4017857,18.25 C17.7454509,18.25 18.9635304,17.7370881 19.8446325,16.9027323 C20.7105318,16.0827726 21.25,14.9511089 21.25,13.6987952 C21.25,12.2883596 20.5658464,11.0317303 19.2241637,9.73155854 C18.9893772,8.31318238 18.2168062,7.06516514 17.1149898,6.17387481 C16.0157634,5.28467963 14.5886274,4.75 13.0301339,4.75 Z" id="路径" stroke="#222222" stroke-width="1.5"></path>
                <path d="M12.5,8.77911647 C12.8353136,8.77911647 13.1071429,9.04762784 13.1071429,9.37884873 L13.1071429,12.6827175 L13.9891127,11.8201339 C14.2274163,11.5871004 14.6118136,11.5889933 14.8477455,11.8243507 C15.0813058,12.0573842 15.0817612,12.4318795 14.8505536,12.6654752 L14.8434766,12.6725033 L13.2223292,14.258008 C12.8256373,14.6459598 12.1885926,14.6482838 11.7890357,14.2661419 L11.7769877,14.2544471 L10.1733717,12.6704043 C9.93626339,12.4361901 9.93626339,12.0564471 10.1733717,11.8222517 C10.4080893,11.5903614 10.7872121,11.5880562 11.0248326,11.815261 L11.0319855,11.8222329 L11.8928571,12.6725971 L11.8928571,9.37884873 C11.8928571,9.04762784 12.1646864,8.77911647 12.5,8.77911647 Z" id="路径" fill="#FFB55B"></path>
            </g>
        </g>
    </g>
</svg>