<svg xmlns="http://www.w3.org/2000/svg" width="24" height="24" viewBox="0 0 24 24"><defs><style>.a{fill:none;}.b{fill:#333;}</style></defs><path class="a" d="M0,0H24V24H0Z"/><path class="b" d="M12.074,6.843,9.026,9.337H5.794v3.588H9.026l3.047,2.494ZM8.386,14.719H4.9a.9.9,0,0,1-.9-.9V8.439a.9.9,0,0,1,.9-.9H8.386l4.749-3.886A.449.449,0,0,1,13.868,4V18.258a.449.449,0,0,1-.733.347L8.387,14.719Zm8.947.53-1.276-1.276a3.588,3.588,0,0,0-.288-5.886L17.06,6.8a5.383,5.383,0,0,1,.273,8.452Z" transform="translate(0.875 0.869)"/></svg>