<?xml version="1.0" encoding="UTF-8"?>
<svg width="12px" height="12px" viewBox="0 0 12 12" version="1.1" xmlns="http://www.w3.org/2000/svg" xmlns:xlink="http://www.w3.org/1999/xlink">
    <title>编组 2</title>
    <defs>
        <linearGradient x1="0%" y1="50%" x2="100%" y2="52.8975679%" id="linearGradient-1">
            <stop stop-color="#E99D63" offset="0%"></stop>
            <stop stop-color="#FFFFFF" offset="100%"></stop>
        </linearGradient>
    </defs>
    <g id="页面-1" stroke="none" stroke-width="1" fill="none" fill-rule="evenodd">
        <g id="商品详情-优惠券" transform="translate(-960.000000, -122.000000)">
            <g id="编组-2" transform="translate(960.000000, 122.000000)">
                <g id="评星-选中备份-2" opacity="0.5">
                    <rect id="矩形" fill="#D8D8D8" opacity="0" x="0" y="0" width="12" height="12"></rect>
                    <path d="M10.7571636,3.25608251 L8.68613652,2.96091363 C8.4872557,2.9324437 8.31555403,2.81007038 8.22721279,2.63383459 L7.30099768,0.793176112 C7.05827649,0.307842668 6.5533623,0 6.00005432,0 C5.44674634,0 4.94183215,0.307842668 4.69911095,0.793176112 L3.77289584,2.63383459 C3.68448491,2.81000229 3.5128131,2.93233064 3.31397212,2.96085031 L1.24294501,3.25608251 C0.695225588,3.33630243 0.24122108,3.71222098 0.070827794,4.22660285 C-0.0995654918,4.74098472 0.0430167064,5.30518531 0.438936581,5.68321662 L1.93733066,7.11600767 C2.08108173,7.25369424 2.14652523,7.45143189 2.11246763,7.64518432 L1.75869095,9.66831314 C1.6629136,10.2017895 1.88695441,10.7419074 2.3359943,11.0600769 C2.78139569,11.3804036 3.37570544,11.4225178 3.86383734,11.1683434 L5.71620269,10.2131916 C5.8936463,10.12152 6.10607314,10.12152 6.28351675,10.2131916 L8.1360767,11.1685334 C8.62623062,11.41948 9.21990969,11.3766484 9.66693716,11.0580877 C10.1139646,10.7395271 10.3366015,10.2006359 10.2410285,9.66850308 L9.88731668,7.64537426 C9.85323618,7.45162023 9.91868305,7.2538724 10.0624536,7.11619761 L11.5608477,5.68340656 C11.9568723,5.30543155 12.0995651,4.74121544 11.9292355,4.22677804 C11.7589058,3.71234064 11.304911,3.33634769 10.7571636,3.25608251 Z" id="路径" fill="#FF9340"></path>
                    <path d="M5.8477478,10.1622925 C6.1389974,10.1076864 6.30022259,10.2229835 6.3347168,10.240804 L8.13404692,11.1856536 C8.62420083,11.4366002 9.2178799,11.3937686 9.66490737,11.0752079 C10.1119348,10.7566473 10.3439968,10.2346351 10.2484238,9.70250231 L9.89471199,7.67937348 C9.88759506,7.6389124 9.85658773,7.4208374 9.97735596,7.21375529 C9.66490737,7.50369263 6.19439697,9.95603434 5.8477478,10.1622925 Z" id="路径备份-3" fill="#FFD2AF"></path>
                    <path d="M3.97692891,4.66666667 C4.35107895,4.66666667 4.72756912,4.77189037 5.10376648,4.97855282 C5.26817382,5.06886931 5.33430357,5.28740619 5.25147141,5.4666686 C5.16863925,5.64593102 4.96821204,5.71803594 4.80380471,5.62771946 C4.51735284,5.47035832 4.24260522,5.39357022 3.97692891,5.39357022 C3.7112526,5.39357022 3.43650498,5.47035832 3.15005311,5.62771946 C2.98564577,5.71803594 2.78521856,5.64593102 2.70238641,5.4666686 C2.61955425,5.28740619 2.685684,5.06886931 2.85009133,4.97855282 C3.22628869,4.77189037 3.60277887,4.66666667 3.97692891,4.66666667 Z" id="路径-102" fill="url(#linearGradient-1)" fill-rule="nonzero" transform="translate(3.976929, 5.166667) rotate(-57.000000) translate(-3.976929, -5.166667) "></path>
                </g>
                <g id="评星-未选中">
                    <rect id="矩形" fill="#D8D8D8" opacity="0" x="0" y="0" width="12" height="12"></rect>
                    <path d="M6.00005432,0.5 C6.18276824,0.5 6.35758858,0.550578583 6.50671196,0.641498068 C6.65323456,0.730831878 6.77498418,0.859218461 6.85435683,1.01792476 L6.85435683,1.01792476 L7.78022601,2.85789444 C7.94104222,3.17871372 8.25239306,3.40392 8.61558796,3.45591151 L8.61558796,3.45591151 L10.6846694,3.75079919 C10.8656929,3.77732579 11.0314102,3.85239086 11.1658099,3.96369905 C11.2976414,4.07288025 11.3993102,4.21701884 11.4545766,4.38393703 C11.5091754,4.548839 11.5136445,4.7217217 11.4726862,4.88367329 C11.4313284,5.04720474 11.3437576,5.19942164 11.2152938,5.32203077 L11.2152938,5.32203077 L9.71663894,6.75507133 C9.45114269,7.00931067 9.33203801,7.37474354 9.39478757,7.73148512 L9.39478757,7.73148512 L9.74890286,9.75689068 C9.63072277,10.4088798 9.52171434,10.5476084 9.37676741,10.6509004 C9.22908895,10.756139 9.05710582,10.8155171 8.88169981,10.828172 C8.70580828,10.8408619 8.5262896,10.8065924 8.36524316,10.7241431 L8.36524316,10.7241431 L6.51301169,9.76897087 C6.19200594,9.6031317 5.80771351,9.6031317 5.48705321,9.76879256 L5.48705321,9.76879256 L3.63291373,10.7248637 C3.4721651,10.8085668 3.29391087,10.8432767 3.11923444,10.8308987 C2.945044,10.8185552 2.77421765,10.7593619 2.6250632,10.6521073 C2.47945302,10.5489345 2.36987966,10.4100632 2.30488014,10.2533623 C2.2408196,10.098925 2.22019215,9.92727769 2.25121738,9.75443933 L2.25121738,9.75443933 L2.60491759,7.73174666 C2.66770791,7.37453485 2.54861986,7.00915616 2.28288462,6.75463188 L2.28288462,6.75463188 L0.784225971,5.32158803 C0.656136084,5.19928554 0.568600734,5.04706283 0.527274694,4.88353487 C0.486347624,4.72158564 0.490844805,4.54871429 0.545464074,4.38383008 C0.600751384,4.2169292 0.702432454,4.07281109 0.83426895,3.96364965 C0.968673529,3.85236182 1.13438816,3.77731624 1.31350839,3.75107828 L1.31350839,3.75107828 L3.38496042,3.45578532 C3.74767114,3.40376188 4.05888041,3.17870772 4.21953669,2.85858324 L4.21953669,2.85858324 L5.14630447,1.01682306 C5.22512446,0.859218461 5.34687408,0.730831878 5.49339668,0.641498068 C5.64252005,0.550578583 5.8173404,0.5 6.00005432,0.5 Z" id="路径备份-4" stroke="#FF9340"></path>
                    <path d="M3.97692891,4.66666667 C4.35107895,4.66666667 4.72756912,4.77189037 5.10376648,4.97855282 C5.26817382,5.06886931 5.33430357,5.28740619 5.25147141,5.4666686 C5.16863925,5.64593102 4.96821204,5.71803594 4.80380471,5.62771946 C4.51735284,5.47035832 4.24260522,5.39357022 3.97692891,5.39357022 C3.7112526,5.39357022 3.43650498,5.47035832 3.15005311,5.62771946 C2.98564577,5.71803594 2.78521856,5.64593102 2.70238641,5.4666686 C2.61955425,5.28740619 2.685684,5.06886931 2.85009133,4.97855282 C3.22628869,4.77189037 3.60277887,4.66666667 3.97692891,4.66666667 Z" id="路径-102备份" fill="#E89556" fill-rule="nonzero" transform="translate(3.976929, 5.166667) rotate(-57.000000) translate(-3.976929, -5.166667) "></path>
                </g>
            </g>
        </g>
    </g>
</svg>