<svg id="组件_11_1" data-name="组件 11 – 1" xmlns="http://www.w3.org/2000/svg" width="18" height="18" viewBox="0 0 18 18">
  <defs>
    <style>
      .cls-1 {
        fill: none;
      }

      .cls-2 {
        fill: #d1d1d1;
      }
    </style>
  </defs>
  <path id="路径_64" data-name="路径 64" class="cls-1" d="M0,0H18V18H0Z"/>
  <path id="路径_65" data-name="路径 65" class="cls-2" d="M5.731,13.193h7.462v3.731H5.731Zm8.954,2.239V11.7H4.239v3.731H2.746A.746.746,0,0,1,2,14.685V7.223a.746.746,0,0,1,.746-.746H16.178a.746.746,0,0,1,.746.746v7.462a.746.746,0,0,1-.746.746ZM4.239,7.97V9.462H6.477V7.97ZM5.731,2h7.462a.746.746,0,0,1,.746.746V4.985H4.985V2.746A.746.746,0,0,1,5.731,2Z" transform="translate(-0.462 -0.462)"/>
</svg>
