<?xml version="1.0" encoding="UTF-8"?>
<svg width="24px" height="24px" viewBox="0 0 24 24" version="1.1" xmlns="http://www.w3.org/2000/svg" xmlns:xlink="http://www.w3.org/1999/xlink">
    <!-- Generator: Sketch 64 (93537) - https://sketch.com -->
    <title>添加购物车备份 8</title>
    <desc>Created with Sketch.</desc>
    <g id="主页面" stroke="none" stroke-width="1" fill="none" fill-rule="evenodd">
        <g id="商品详情-选择规格" transform="translate(-68.000000, -587.000000)" fill="#FF705B">
            <g id="添加购物车备份-8" transform="translate(68.000000, 587.000000)">
                <path d="M12.0773221,0 L12.0741661,0.00315563412 C13.0791777,0.0147262926 14.085592,0.0813452351 15.0909543,0.206168096 L15.5812175,0.267559835 C16.7281472,0.413629125 17.8905481,0.588657248 18.9549539,0.98596035 C22.2620944,2.22016392 23.4659342,4.95995559 23.8011718,8.24146445 C23.9110182,9.31556341 23.9749547,10.3893939 23.9929812,11.4631909 L24,12.0787155 C23.9922853,13.3034522 23.9267106,14.5306433 23.8011718,15.7585356 C23.4659342,19.0400444 22.2620944,21.7794855 18.9549539,23.013689 C17.7384901,23.4681003 16.3940328,23.6318427 15.0909543,23.7938319 C14.2112623,23.9030519 13.3307648,23.9677095 12.4511064,23.9899188 L12.0741661,23.9968444 L12.0773221,24 L12.0019287,23.9982469 L11.9997623,24 L11.9226779,24 L11.9261846,23.9968444 C10.921173,23.9852737 9.91510936,23.9186548 8.90939641,23.7938319 L8.41913245,23.7324395 C7.27219795,23.5863654 6.10975877,23.4112989 5.0450461,23.013689 C1.73825631,21.7794855 0.534416505,19.0400444 0.199178855,15.7585356 C0.0893324177,14.6841298 0.0253959615,13.6102609 0.00736948613,12.5366941 L0,11.9209338 C0.00806534095,10.6961972 0.0736400695,9.46900612 0.199178855,8.24146445 L0.231554918,7.94907174 C0.608161407,4.79772752 1.83696645,2.18332202 5.0450461,0.98596035 C6.26186058,0.531899663 7.60631785,0.368157314 8.90939641,0.206168096 C9.78939525,0.0969480927 10.6696626,0.0322904644 11.5492587,0.0100811827 L11.9261846,0.00315563412 L11.9226779,0 L12.0773221,0 Z M12,8 C11.4871642,8 11.0644928,8.38604019 11.0067277,8.88337887 L11,9 L10.999,11 L9,11 C8.48716416,11 8.06449284,11.3860402 8.00672773,11.8833789 L8,12 C8,12.5128358 8.38604019,12.9355072 8.88337887,12.9932723 L9,13 L10.999,13 L11,15 C11,15.5128358 11.3860402,15.9355072 11.8833789,15.9932723 L12,16 C12.5128358,16 12.9355072,15.6139598 12.9932723,15.1166211 L13,15 L12.999,13 L15,13 C15.5128358,13 15.9355072,12.6139598 15.9932723,12.1166211 L16,12 C16,11.4871642 15.6139598,11.0644928 15.1166211,11.0067277 L15,11 L12.999,11 L13,9 C13,8.48716416 12.6139598,8.06449284 12.1166211,8.00672773 L12,8 Z" id="t"></path>
            </g>
        </g>
    </g>
</svg>