<?xml version="1.0" encoding="UTF-8"?>
<svg width="24px" height="24px" viewBox="0 0 24 24" version="1.1" xmlns="http://www.w3.org/2000/svg" xmlns:xlink="http://www.w3.org/1999/xlink">
    <!-- Generator: Sketch 64 (93537) - https://sketch.com -->
    <title>客服</title>
    <desc>Created with Sketch.</desc>
    <g id="主页面" stroke="none" stroke-width="1" fill="none" fill-rule="evenodd">
        <g id="商品详情-参与拼团" transform="translate(-54.000000, -732.000000)" fill-rule="nonzero">
            <g id="客服" transform="translate(54.000000, 732.000000)">
                <rect id="矩形" fill="#000000" opacity="0" x="0" y="0" width="24" height="24"></rect>
                <path d="M18.571696,16.125 L18.571696,11.25 C18.571696,7.66666666 15.6550293,4.75 12.071696,4.75 C8.48836266,4.75 5.571696,7.66666666 5.571696,11.25 L5.571696,16.125 L4.321696,16.125 L4.321696,11.25 C4.321696,6.95833334 7.78002934,3.5 12.071696,3.5 C16.3633627,3.5 19.821696,6.95833334 19.821696,11.25 L19.821696,16.125 L18.571696,16.125 Z" id="路径" fill="#222222"></path>
                <path d="M6.696696,18.9166667 C5.36336266,18.9166667 4.321696,17.8333333 4.321696,16.5416667 L4.321696,14.9166667 C4.321696,13.5833333 5.40502934,12.5416667 6.696696,12.5416667 L7.11336266,12.5416667 C8.446696,12.5416667 9.48836266,13.625 9.48836266,14.9166667 L9.48836266,16.5416667 C9.48836266,17.875 8.40502932,18.9166667 7.11336266,18.9166667 L6.696696,18.9166667 Z M17.071696,18.9166667 C15.7383627,18.9166667 14.696696,17.8333333 14.696696,16.5416667 L14.696696,14.9166667 C14.696696,13.5833333 15.7800293,12.5416667 17.071696,12.5416667 L17.446696,12.5416667 C18.7800293,12.5416667 19.821696,13.625 19.821696,14.9166667 L19.821696,16.5416667 C19.821696,17.875 18.7383627,18.9166667 17.446696,18.9166667 L17.071696,18.9166667 Z" id="形状" fill="#222222"></path>
                <path d="M15.821696,9.70833334 C15.4050293,8.5 14.321696,7.95833334 14.321696,7.95833334 C14.0300293,7.79166668 13.9050293,7.41666668 14.071696,7.125 C14.2383627,6.83333332 14.6133627,6.70833334 14.9050293,6.875 C14.946696,6.91666666 16.4050293,7.66666666 16.9883627,9.33333334 C17.1133627,9.66666668 16.946696,10 16.6133627,10.125 L16.4050293,10.125 C16.1550293,10.125 15.9050293,9.95833334 15.821696,9.70833334 Z" id="路径" fill="#999999"></path>
            </g>
        </g>
    </g>
</svg>