<?xml version="1.0" encoding="UTF-8"?>
<svg width="16px" height="16px" viewBox="0 0 16 16" version="1.1" xmlns="http://www.w3.org/2000/svg" xmlns:xlink="http://www.w3.org/1999/xlink">
    <!-- Generator: Sketch 64 (93537) - https://sketch.com -->
    <title>dui1</title>
    <desc>Created with Sketch.</desc>
    <g id="主页面" stroke="none" stroke-width="1" fill="none" fill-rule="evenodd">
        <g id="分类详情-综合排序" transform="translate(-37.000000, -146.000000)" fill-rule="nonzero">
            <g id="dui1" transform="translate(37.000000, 146.000000)">
                <rect id="矩形" fill="#000000" opacity="0" x="0" y="0" width="16" height="16"></rect>
                <path d="M6.0646077,11.1321676 C6.51311457,10.1227433 6.99682071,9.14965368 7.51572613,8.20949245 C8.03463154,7.27160213 8.59100715,6.38140116 9.18825934,5.53775406 C9.78551152,4.69410696 10.2419666,4.11729306 10.5553537,3.80390598 C10.8687408,3.49051891 11.0867492,3.30770978 11.2082434,3.25434314 C11.3286022,3.2009765 11.5943,3.14533893 12.0064721,3.08743045 C12.4186443,3.02952197 12.7002384,3 12.8535256,3 C12.9500397,3 13,3.03747019 13,3.11127512 C13,3.157829 12.9829681,3.20324742 12.9477688,3.24639491 C12.913705,3.29067787 12.812649,3.38719201 12.6468718,3.5336664 C11.8100375,4.31259226 10.8891791,5.45940729 9.8865675,6.97865334 C8.88282048,8.49903486 8.04485069,10.0932213 7.36925173,11.7646191 C7.09560577,12.4322698 6.90939026,12.8319519 6.80719882,12.9659362 C6.70500738,13.1055978 6.38367208,13.1737254 5.84319291,13.1737254 C5.45486545,13.1737254 5.22209606,13.1339843 5.14602021,13.0556376 C5.06994436,12.9772908 4.9166572,12.7626888 4.68388782,12.410696 C4.30464403,11.8247985 3.86635631,11.2695583 3.37356648,10.748382 C3.12376519,10.4860906 3,10.2862496 3,10.1522652 C3,9.96832065 3.13511979,9.77983422 3.40876575,9.58680595 C3.6801408,9.39491314 3.90609742,9.29953446 4.08663563,9.29953446 C4.3171341,9.29953446 4.60099921,9.42670603 4.93709549,9.67991371 C5.27319178,9.93993414 5.64902918,10.4225048 6.0646077,11.1321676 Z" id="路径" fill="#FFB55B"></path>
            </g>
        </g>
    </g>
</svg>