<svg id="组件_17_1" data-name="组件 17 – 1" xmlns="http://www.w3.org/2000/svg" width="32" height="32" viewBox="0 0 32 32">
  <defs>
    <style>
      .cls-1 {
        fill: none;
      }

      .cls-2 {
        fill: #ffb55b;
      }
    </style>
  </defs>
  <path id="路径_95" data-name="路径 95" class="cls-1" d="M0,0H32V32H0Z"/>
  <path id="路径_96" data-name="路径 96" class="cls-2" d="M19.667,2a5.333,5.333,0,0,1,4.619,8h6.048v2.667H27.667V26a1.333,1.333,0,0,1-1.333,1.333H5A1.333,1.333,0,0,1,3.667,26V12.667H1V10H7.048a5.333,5.333,0,0,1,8.619-6.195,5.311,5.311,0,0,1,4-1.807ZM14.333,12.667h-8v12h8Zm10.667,0H17v12h8Zm-13.333-8a2.667,2.667,0,0,0-.2,5.327l.2.007h2.667V7.333A2.667,2.667,0,0,0,12.071,4.7l-.205-.024Zm8,0a2.667,2.667,0,0,0-2.66,2.467l-.007.2V10h2.667a2.667,2.667,0,0,0,2.66-2.467l.007-.2A2.667,2.667,0,0,0,19.667,4.667Z" transform="translate(0.333 0.667)"/>
</svg>
