<?xml version="1.0" encoding="UTF-8"?>
<svg width="24px" height="24px" viewBox="0 0 24 24" version="1.1" xmlns="http://www.w3.org/2000/svg" xmlns:xlink="http://www.w3.org/1999/xlink">
    <!-- Generator: Sketch 64 (93537) - https://sketch.com -->
    <title>眼睛</title>
    <desc>Created with Sketch.</desc>
    <g id="主页面" stroke="none" stroke-width="1" fill="none" fill-rule="evenodd">
        <g id="最新资讯" transform="translate(-227.000000, -174.000000)" fill-rule="nonzero">
            <g id="眼睛" transform="translate(227.000000, 174.000000)">
                <rect id="矩形" fill="#000000" opacity="0" x="0" y="0" width="24" height="24"></rect>
                <path d="M12,16.6666667 C9.17984392,16.65433 6.70051678,14.7965273 5.89666667,12.0933333 L5.87,12 L5.89666667,11.9066667 C6.69073793,9.19694477 9.17632475,7.3352198 12,7.3352198 C14.8236753,7.3352198 17.3092621,9.19694477 18.1033333,11.9066667 L18.13,12 L18.1033333,12.0933333 C17.2994832,14.7965273 14.8201561,16.65433 12,16.6666667 Z M6.56666667,12 C7.30656643,14.3792332 9.50837353,16.0003287 12,16.0003287 C14.4916265,16.0003287 16.6934336,14.3792332 17.4333333,12 C16.6934336,9.62076676 14.4916265,7.99967125 12,7.99967125 C9.50837353,7.99967125 7.30656643,9.62076676 6.56666667,12 L6.56666667,12 Z" id="形状" fill="#222222"></path>
                <path d="M12,14.3333333 C10.7113356,14.3333333 9.66666667,13.2886644 9.66666667,12 C9.66666667,10.7113356 10.7113356,9.66666667 12,9.66666667 C13.2886644,9.66666667 14.3333333,10.7113356 14.3333333,12 C14.3333333,12.6188385 14.0875007,13.2123309 13.6499158,13.6499158 C13.2123309,14.0875007 12.6188385,14.3333333 12,14.3333333 Z M12,10.3333333 C11.0795254,10.3333333 10.3333333,11.0795254 10.3333333,12 C10.3333333,12.9204746 11.0795254,13.6666667 12,13.6666667 C12.9204746,13.6666667 13.6666667,12.9204746 13.6666667,12 C13.6666667,11.0795254 12.9204746,10.3333333 12,10.3333333 L12,10.3333333 Z" id="形状" fill="#999999"></path>
            </g>
        </g>
    </g>
</svg>