<svg id="组_445" data-name="组 445" xmlns="http://www.w3.org/2000/svg" width="24" height="24" viewBox="0 0 24 24">
  <defs>
    <style>
      .cls-1 {
        fill: none;
      }

      .cls-2 {
        fill: #fff;
      }
    </style>
  </defs>
  <path id="路径_125" data-name="路径 125" class="cls-1" d="M0,0H24V24H0Z"/>
  <path id="路径_126" data-name="路径 126" class="cls-2" d="M16,4a1,1,0,0,1,1,1V9.2l5.213-3.65A.5.5,0,0,1,23,5.96V18.04a.5.5,0,0,1-.787.41L17,14.8V19a1,1,0,0,1-1,1H2a1,1,0,0,1-1-1V5A1,1,0,0,1,2,4ZM15,6H3V18H15ZM7.4,8.829a.4.4,0,0,1,.215.062l4.355,2.772a.4.4,0,0,1,0,.674L7.615,15.11A.4.4,0,0,1,7,14.77V9.23a.4.4,0,0,1,.4-.4ZM21,8.84l-4,2.8v.718l4,2.8Z"/>
</svg>
