<?xml version="1.0" encoding="UTF-8"?>
<svg width="12px" height="12px" viewBox="0 0 12 12" version="1.1" xmlns="http://www.w3.org/2000/svg" xmlns:xlink="http://www.w3.org/1999/xlink">
    <!-- Generator: Sketch 64 (93537) - https://sketch.com -->
    <title>评星-未选中</title>
    <desc>Created with Sketch.</desc>
    <g id="主页面" stroke="none" stroke-width="1" fill="none" fill-rule="evenodd">
        <g id="搜索结果" transform="translate(-218.000000, -548.000000)">
            <g id="评星-未选中" transform="translate(218.000000, 548.000000)">
                <rect id="矩形" fill="#D8D8D8" opacity="0" x="0" y="0" width="12" height="12"></rect>
                <path d="M6.00005432,0.5 C5.8173404,0.5 5.64252005,0.550578583 5.49339668,0.641498068 C5.34687408,0.730831878 5.22512446,0.859218461 5.14630447,1.01682306 L4.21953669,2.85858324 C4.05888041,3.17870772 3.74767114,3.40376188 3.38496042,3.45578532 L1.31350839,3.75107828 C1.13438816,3.77731624 0.968673529,3.85236182 0.83426895,3.96364965 C0.702432454,4.07281109 0.600751384,4.2169292 0.545464074,4.38383008 C0.490844805,4.54871429 0.486347624,4.72158564 0.527274694,4.88353487 C0.568600734,5.04706283 0.656136084,5.19928554 0.784225971,5.32158803 L2.28288462,6.75463188 C2.54861986,7.00915616 2.66770791,7.37453485 2.60491759,7.73174666 L2.25121738,9.75443933 C2.22019215,9.92727769 2.2408196,10.098925 2.30488014,10.2533623 C2.36987966,10.4100632 2.47945302,10.5489345 2.6250632,10.6521073 C2.77421765,10.7593619 2.945044,10.8185552 3.11923444,10.8308987 C3.29391087,10.8432767 3.4721651,10.8085668 3.63291373,10.7248637 L5.48705321,9.76879256 C5.80771351,9.6031317 6.19200594,9.6031317 6.51301169,9.76897087 L8.36524316,10.7241431 C8.5262896,10.8065924 8.70580828,10.8408619 8.88169981,10.828172 C9.05710582,10.8155171 9.22908895,10.756139 9.37676741,10.6509004 C9.52171434,10.5476084 9.63072277,10.4088798 9.74890286,9.75689068 L9.39478757,7.73148512 C9.33203801,7.37474354 9.45114269,7.00931067 9.71663894,6.75507133 L11.2152938,5.32203077 C11.3437576,5.19942164 11.4313284,5.04720474 11.4726862,4.88367329 C11.5136445,4.7217217 11.5091754,4.548839 11.4545766,4.38393703 C11.3993102,4.21701884 11.2976414,4.07288025 11.1658099,3.96369905 C11.0314102,3.85239086 10.8656929,3.77732579 10.6846694,3.75079919 L8.61558796,3.45591151 C8.25239306,3.40392 7.94104222,3.17871372 7.78022601,2.85789444 L6.85435683,1.01792476 C6.77498418,0.859218461 6.65323456,0.730831878 6.50671196,0.641498068 C6.35758858,0.550578583 6.18276824,0.5 6.00005432,0.5 Z" id="路径备份-4" stroke="#FF9340"></path>
                <path d="M3.97692891,4.66666667 C4.35107895,4.66666667 4.72756912,4.77189037 5.10376648,4.97855282 C5.26817382,5.06886931 5.33430357,5.28740619 5.25147141,5.4666686 C5.16863925,5.64593102 4.96821204,5.71803594 4.80380471,5.62771946 C4.51735284,5.47035832 4.24260522,5.39357022 3.97692891,5.39357022 C3.7112526,5.39357022 3.43650498,5.47035832 3.15005311,5.62771946 C2.98564577,5.71803594 2.78521856,5.64593102 2.70238641,5.4666686 C2.61955425,5.28740619 2.685684,5.06886931 2.85009133,4.97855282 C3.22628869,4.77189037 3.60277887,4.66666667 3.97692891,4.66666667 Z" id="路径-102备份" fill="#E89556" fill-rule="nonzero" transform="translate(3.976929, 5.166667) rotate(-57.000000) translate(-3.976929, -5.166667) "></path>
            </g>
        </g>
    </g>
</svg>