<svg id="组件_15_1" data-name="组件 15 – 1" xmlns="http://www.w3.org/2000/svg" width="18" height="18" viewBox="0 0 18 18">
  <defs>
    <style>
      .cls-1 {
        fill: none;
      }

      .cls-2 {
        fill: #666;
      }
    </style>
  </defs>
  <path id="路径_91" data-name="路径 91" class="cls-1" d="M0,0H18V18H0Z"/>
  <path id="路径_92" data-name="路径 92" class="cls-2" d="M15.75,2a.75.75,0,0,1,.75.75V5.568L15,7.068V3.5H4.5v12H15V13.432l1.5-1.5V16.25a.75.75,0,0,1-.75.75h-12A.75.75,0,0,1,3,16.25V2.75A.75.75,0,0,1,3.75,2Zm1.333,5.106,1.06,1.06L12.31,14l-1.062,0,0-1.059,5.834-5.833ZM10.5,9.5V11H6.75V9.5Zm2.25-3V8h-6V6.5Z" transform="translate(-0.75 -0.5)"/>
</svg>
