<svg xmlns="http://www.w3.org/2000/svg" width="22" height="22" viewBox="0 0 22 22"><defs><style>.a{fill:none;}.b{fill:#333;}</style></defs><g transform="translate(-14.526 -14.526)"><rect class="a" width="22" height="22" transform="translate(14.526 14.526)"/><path class="b" d="M371.407,424.448q-.7,0-.7.6v1.2q0,.6.7.6t.7-.6v-1.2Q372.1,424.448,371.407,424.448Zm-4.629,0q-.7,0-.7.6v1.2q0,.6.7.6t.7-.6v-1.2Q367.459,424.448,366.778,424.448Z" transform="translate(-343.48 -400.644)"/><path class="b" d="M18.214,32.713l-.793,1.617a.921.921,0,0,0-.127.993.944.944,0,0,0,.845.539h7.472a10.243,10.243,0,1,0-7.4-3.15Zm1.332,1.649a2.4,2.4,0,0,0-.254-2.695A8.746,8.746,0,1,1,25.6,34.362H19.545Z" transform="translate(0.166 0.166)"/><path class="b" d="M398.636,648.493a3.284,3.284,0,0,1-2.382-1,.5.5,0,0,1-.125-.34.457.457,0,0,1,.176-.353l.029-.021a.559.559,0,0,1,.294-.091.516.516,0,0,1,.371.152,2.167,2.167,0,0,0,1.624.693,2.222,2.222,0,0,0,1.619-.688.534.534,0,0,1,.375-.157.506.506,0,0,1,.316.107.465.465,0,0,1,.189.329.472.472,0,0,1-.133.37,3.2,3.2,0,0,1-2.354,1Z" transform="translate(-372.91 -618.295)"/></g></svg>