<?xml version="1.0" encoding="UTF-8"?>
<svg width="24px" height="24px" viewBox="0 0 24 24" version="1.1" xmlns="http://www.w3.org/2000/svg" xmlns:xlink="http://www.w3.org/1999/xlink">
    <!-- Generator: Sketch 64 (93537) - https://sketch.com -->
    <title>题集</title>
    <desc>Created with Sketch.</desc>
    <g id="主页面" stroke="none" stroke-width="1" fill="none" fill-rule="evenodd">
        <g id="随机练习" transform="translate(-299.000000, -739.000000)">
            <g id="题集" transform="translate(299.000000, 739.000000)">
                <rect id="矩形" fill="#D8D8D8" opacity="0" x="0" y="0" width="24" height="24"></rect>
                <path d="M17,3.75 C17.6213203,3.75 18.1838203,4.00183983 18.5909903,4.40900974 C18.9981602,4.81617966 19.25,5.37867966 19.25,6 L19.25,6 L19.25,18 C19.25,18.6213203 18.9981602,19.1838203 18.5909903,19.5909903 C18.1838203,19.9981602 17.6213203,20.25 17,20.25 L17,20.25 L7,20.25 C6.37867966,20.25 5.81617966,19.9981602 5.40900974,19.5909903 C5.00183983,19.1838203 4.75,18.6213203 4.75,18 L4.75,18 L4.75,6 C4.75,5.37867966 5.00183983,4.81617966 5.40900974,4.40900974 C5.81617966,4.00183983 6.37867966,3.75 7,3.75 L7,3.75 Z M13.3529129,15.2645645 L8.3529129,16.2645645 L8.6470871,17.7354355 L13.6470871,16.7354355 L13.3529129,15.2645645 Z M11.2628292,10.2884875 L8.26282918,11.2884875 L8.73717082,12.7115125 L11.7371708,11.7115125 L11.2628292,10.2884875 Z" id="形状结合" stroke="#222222" stroke-width="1.5" fill="#FFF17A"></path>
                <polygon id="路径-15" fill="#222222" points="13 4 16 4 16 8 14.5 7 13 8"></polygon>
            </g>
        </g>
    </g>
</svg>