<svg xmlns="http://www.w3.org/2000/svg" width="22" height="22" viewBox="0 0 22 22"><defs><style>.a{fill:none;}.b{fill:#333;}</style></defs><g transform="translate(-47 -32)"><rect class="a" width="22" height="22" transform="translate(47 32)"/><path class="b" d="M16.615,0H13.727a.832.832,0,1,0,0,1.663h2.056a.835.835,0,0,1,.832.832V4.569a.832.832,0,0,0,1.663,0V1.663A1.658,1.658,0,0,0,16.615,0ZM.832,5.4a.835.835,0,0,0,.832-.832V2.485a.835.835,0,0,1,.832-.832H4.551A.835.835,0,0,0,5.383.822.829.829,0,0,0,4.542,0H1.663A1.658,1.658,0,0,0,0,1.663V4.569A.835.835,0,0,0,.832,5.4ZM4.56,16.642H2.495a.835.835,0,0,1-.832-.832V13.745a.825.825,0,0,0-.823-.823H.823A.825.825,0,0,0,0,13.745v2.879a1.663,1.663,0,0,0,1.663,1.663h2.9a.823.823,0,1,0,0-1.645Zm12.9-3.72h-.027a.825.825,0,0,0-.823.823V15.81a.835.835,0,0,1-.832.832H13.709a.823.823,0,1,0,0,1.645h2.9a1.663,1.663,0,0,0,1.663-1.663v-2.87a.808.808,0,0,0-.813-.832Zm-13.615-3H14.465a.832.832,0,1,0,0-1.663H3.841a.832.832,0,0,0,0,1.663Z" transform="translate(49 33)"/></g></svg>