<?xml version="1.0" encoding="UTF-8"?>
<svg width="24px" height="25px" viewBox="0 0 24 25" version="1.1" xmlns="http://www.w3.org/2000/svg" xmlns:xlink="http://www.w3.org/1999/xlink">
    <!-- Generator: Sketch 64 (93537) - https://sketch.com -->
    <title>意见备份</title>
    <desc>Created with Sketch.</desc>
    <g id="主页面" stroke="none" stroke-width="1" fill="none" fill-rule="evenodd">
        <g id="观看课程" transform="translate(-301.000000, -731.000000)">
            <g id="意见备份" transform="translate(301.000000, 731.000000)">
                <rect id="矩形" fill="#000000" fill-rule="nonzero" opacity="0" x="0" y="0" width="24" height="24"></rect>
                <path d="M5.08897739,12.9505092 C4.718309,13.3221738 4.5053697,13.8031632 4.46834578,14.3265239 L4.3556288,17.2700308 C4.35869293,17.5300274 4.45773818,17.7631648 4.62489546,17.9307711 C4.79942359,18.1057681 5.04615566,18.1974144 5.35524574,18.1999461 L8.23830891,18.0877412 C8.77175459,18.0501016 9.25233193,17.8377478 9.62372401,17.4653581 L15.9251306,11.1470236 C16.5457781,10.5247088 16.8555555,9.70699295 16.8555556,8.88955677 C16.8555556,8.07212058 16.5457781,7.25440473 15.9251306,6.6320899 C15.5999855,6.30607133 15.2178934,6.06386193 14.6813885,6.05478082 C14.1407634,6.04562998 13.4814788,6.24507602 12.6355448,6.69425717 C10.9104185,7.61027926 8.52780724,9.51887285 5.08897739,12.9505092 Z" id="路径" stroke="#222222" stroke-width="1.5" fill-rule="nonzero"></path>
                <rect id="矩形" fill="#FFB55B" x="13" y="18" width="8" height="2" rx="1"></rect>
                <path d="M13,9 C13,9.55228475 13.4477153,10 14,10 C14.5522847,10 15,9.55228475 15,9 C15,8.44771525 14.5522847,8 14,8 C13.4477153,8 13,8.44771525 13,9 Z" id="路径" fill="#FFB55B" fill-rule="nonzero"></path>
            </g>
        </g>
    </g>
</svg>