<svg xmlns="http://www.w3.org/2000/svg" xmlns:xlink="http://www.w3.org/1999/xlink" width="42" height="42" viewBox="0 0 42 42">
  <defs>
    <style>
      .cls-1 {
        fill: #f89e40;
        opacity: 0;
      }

      .cls-2, .cls-3 {
        fill: none;
        stroke: #f89e40;
        stroke-linejoin: round;
      }

      .cls-3 {
        stroke-linecap: round;
      }

      .cls-4 {
        filter: url(#椭圆_3);
      }
    </style>
    <filter id="椭圆_3" x="0" y="0" width="42" height="42" filterUnits="userSpaceOnUse">
      <feOffset dy="3" input="SourceAlpha"/>
      <feGaussianBlur stdDeviation="3" result="blur"/>
      <feFlood flood-opacity="0.161"/>
      <feComposite operator="in" in2="blur"/>
      <feComposite in="SourceGraphic"/>
    </filter>
  </defs>
  <g id="组件_28_2" data-name="组件 28 – 2" transform="translate(9 6)">
    <g class="cls-4" transform="matrix(1, 0, 0, 1, -9, -6)">
      <circle id="椭圆_3-2" data-name="椭圆 3" class="cls-1" cx="12" cy="12" r="12" transform="translate(9 6)"/>
    </g>
    <g id="组_134" data-name="组 134" transform="translate(-1.279 -2.408)">
      <g id="组_136" data-name="组 136" transform="translate(4.279 7.068)">
        <path id="路径_37" data-name="路径 37" class="cls-2" d="M4,12.079V7H21.958v5.079a2.477,2.477,0,0,0,0,4.657v5.079H4V16.736a2.477,2.477,0,0,0,0-4.657Z" transform="translate(-4 -7)"/>
        <g id="组_137" data-name="组 137" transform="translate(7.024 4.132)">
          <g id="组_135" data-name="组 135" transform="translate(0 0)">
            <path id="路径_40" data-name="路径 40" class="cls-3" d="M0,2.755V0" transform="translate(1.948 1.948) rotate(135)"/>
            <path id="路径_41" data-name="路径 41" class="cls-3" d="M0,0V2.755" transform="translate(3.896) rotate(45)"/>
          </g>
          <path id="路径_42" data-name="路径 42" class="cls-3" d="M0,0V3.673" transform="translate(3.784 2.098) rotate(90)"/>
          <path id="路径_44" data-name="路径 44" class="cls-3" d="M0,0V3.673" transform="translate(1.948 2.558)"/>
          <path id="路径_43" data-name="路径 43" class="cls-3" d="M0,0V3.673" transform="translate(3.784 3.935) rotate(90)"/>
        </g>
      </g>
    </g>
  </g>
</svg>
