<?xml version="1.0" encoding="UTF-8"?>
<svg width="24px" height="24px" viewBox="0 0 24 24" version="1.1" xmlns="http://www.w3.org/2000/svg" xmlns:xlink="http://www.w3.org/1999/xlink">
    <!-- Generator: Sketch 64 (93537) - https://sketch.com -->
    <title>问号-无圈</title>
    <desc>Created with Sketch.</desc>
    <g id="主页面" stroke="none" stroke-width="1" fill="none" fill-rule="evenodd">
        <g id="随机练习" transform="translate(-305.000000, -54.000000)" fill-rule="nonzero">
            <g id="问号-无圈" transform="translate(305.000000, 54.000000)">
                <rect id="矩形" fill="#000000" opacity="0" x="0" y="0" width="24" height="24"></rect>
                <rect id="矩形" stroke="#222222" stroke-width="1.5" fill="#FFFFFF" x="3.75" y="3.75" width="16.5" height="16.5" rx="8.25"></rect>
                <path d="M11.8882354,17.0470711 C11.4888707,17.0470711 11.164706,16.7229064 11.164706,16.3235417 C11.164706,15.924177 11.4888707,15.6000122 11.8882354,15.6000122 C12.2876001,15.6000122 12.6117648,15.924177 12.6117648,16.3235417 C12.6117648,16.7229064 12.2876001,17.0470711 11.8882354,17.0470711 Z M14.9961296,10.0008238 C14.9543649,10.7748474 14.7172002,11.3850356 13.5313413,12.5719886 C12.9300472,13.1738122 12.550906,13.6251886 12.5124942,14.0214004 C12.4824354,14.3323416 12.2202001,14.5647181 11.914553,14.5647181 C11.894506,14.5647181 11.8744707,14.5630475 11.8544354,14.5613769 C11.5237295,14.5296122 11.2832001,14.2337063 11.3149413,13.9027063 C11.3967766,13.0684945 12.0080825,12.3947768 12.6811884,11.7210592 C13.7584825,10.6427768 13.776859,10.3000709 13.7952355,9.9372944 C13.8169413,9.51434144 13.6616119,9.10476496 13.3542943,8.78211789 C13.0052119,8.41432964 12.5108237,8.20368257 11.9980589,8.20368257 L11.9947295,8.20368257 C11.0076118,8.20535316 10.2025647,9.01114142 10.2025647,10.0008238 C10.2025647,10.3335062 9.93365886,10.6026591 9.60128237,10.6026591 C9.26890589,10.6026591 9,10.3335062 9,10.0008238 C9,9.20004731 9.31065883,8.44776493 9.87520003,7.8810355 C10.4397412,7.31430607 11.1913413,7.00169429 11.9913883,7.00000595 C12.8348472,6.99834135 13.6499178,7.34607078 14.2261531,7.95291786 C14.7639649,8.51630611 15.036212,9.24350614 14.9961296,10.0008238 L14.9961296,10.0008238 Z" id="形状" fill="#999999"></path>
            </g>
        </g>
    </g>
</svg>