<svg xmlns="http://www.w3.org/2000/svg" width="24" height="24" viewBox="0 0 24 24"><defs><style>.a,.b{fill:none;stroke:#f89e40;stroke-linejoin:round;}.b{stroke-linecap:round;}.c{fill:#ffb55b;opacity:0;}</style></defs><g transform="translate(-1.279 -2.408)"><g transform="translate(4.279 7.068)"><path class="a" d="M4,12.079V7H21.958v5.079a2.477,2.477,0,0,0,0,4.657v5.079H4V16.736a2.477,2.477,0,0,0,0-4.657Z" transform="translate(-4 -7)"/><g transform="translate(7.024 4.132)"><g transform="translate(0 0)"><path class="b" d="M0,2.755V0" transform="translate(1.948 1.948) rotate(135)"/><path class="b" d="M0,0V2.755" transform="translate(3.896) rotate(45)"/></g><path class="b" d="M0,0V3.673" transform="translate(3.784 2.098) rotate(90)"/><path class="b" d="M0,0V3.673" transform="translate(1.948 2.558)"/><path class="b" d="M0,0V3.673" transform="translate(3.784 3.935) rotate(90)"/></g></g></g><circle class="c" cx="12" cy="12" r="12"/></svg>