<svg xmlns="http://www.w3.org/2000/svg" width="20" height="20" viewBox="0 0 20 20"><defs><style>.a{fill:#666;}.b,.d{fill:none;}.b{stroke:#707070;opacity:0;}.c{stroke:none;}</style></defs><g transform="translate(-138.725 -74.3)"><path class="a" d="M344.736,376.037a.766.766,0,0,0-.532.214l-3.357,3.436-1.582-1.451a.711.711,0,0,0-1.21.5.7.7,0,0,0,.212.5l1.913,1.85.132.132a.736.736,0,0,0,.526.216.772.772,0,0,0,.537-.216l3.894-3.9a.746.746,0,0,0-.533-1.277Z" transform="translate(-193.021 -294.088)"/><path class="a" d="M154.854,78.316l-5.674-2.245a1.555,1.555,0,0,0-.924,0l-5.679,2.247a1.413,1.413,0,0,0-.851,1.3v7.27a1.238,1.238,0,0,0,.091.434l.048.134a11.685,11.685,0,0,0,6.452,5.757,1.343,1.343,0,0,0,.859,0,11.725,11.725,0,0,0,6.468-5.782l.037-.112a1.238,1.238,0,0,0,.091-.434V79.615A1.574,1.574,0,0,0,154.854,78.316Zm-6.122,13.55a10.411,10.411,0,0,1-5.647-4.975l-.032-7.222,5.662-2.241,5.63,2.193,0,7.249A10.345,10.345,0,0,1,148.733,91.867Z" transform="translate(0 0)"/><g class="b" transform="translate(138.725 74.3)"><rect class="c" width="20" height="20"/><rect class="d" x="0.5" y="0.5" width="19" height="19"/></g></g></svg>