<?xml version="1.0" encoding="UTF-8"?>
<svg width="24px" height="24px" viewBox="0 0 24 24" version="1.1" xmlns="http://www.w3.org/2000/svg" xmlns:xlink="http://www.w3.org/1999/xlink">
    <!-- Generator: Sketch 64 (93537) - https://sketch.com -->
    <title>待收货</title>
    <desc>Created with Sketch.</desc>
    <g id="主页面" stroke="none" stroke-width="1" fill="none" fill-rule="evenodd">
        <g id="订单详情" transform="translate(-149.000000, -104.000000)">
            <g id="待收货" transform="translate(149.000000, 104.000000)">
                <rect id="矩形" fill="#D8D8D8" opacity="0" x="0" y="0" width="24" height="24"></rect>
                <path d="M11.9996501,16 C14.8582772,16 17.7169044,16.2026054 20.5755315,16.6078161 L20.7186414,17.7519305 C20.8556464,18.8479704 20.078195,19.8475508 18.9821551,19.9845558 C18.8998654,19.994842 18.8170157,20 18.7340856,20 L5.26521449,20 C4.16064499,20 3.26521449,19.1045695 3.26521449,18 C3.26521449,17.91707 3.27037253,17.8342202 3.28065874,17.7519305 L3.42341279,16.6078665 C6.28215854,16.2026222 9.1409043,16 11.9996501,16 Z" id="路径" fill="#FF705B"></path>
                <path d="M7.64834666,4 L16.3516533,4 C17.8646232,4 19.1408262,5.12660933 19.328487,6.6278958 L20.7189913,17.7519305 C20.8559963,18.8479704 20.0785449,19.8475508 18.982505,19.9845558 C18.9002154,19.994842 18.8173656,20 18.7344356,20 L5.26556444,20 C4.16099494,20 3.26556444,19.1045695 3.26556444,18 C3.26556444,17.91707 3.27072248,17.8342202 3.28100868,17.7519305 L4.67151303,6.6278958 C4.85917383,5.12660933 6.13537685,4 7.64834666,4 Z" id="蒙版" stroke="#222222"></path>
                <path d="M14.5714286,6.625 C14.3142857,6.625 14.1428571,6.825 14.1428571,7.125 C14.1428571,8.525 13.2,9.1982838 12,9.1982838 C10.8,9.1982838 9.85714286,8.525 9.85714286,7.125 C9.85714286,6.825 9.68571429,6.625 9.42857143,6.625 C9.17142857,6.625 9,6.825 9,7.125 C9,9.075 10.3285714,10.1982838 12,10.1982838 C13.6714286,10.1982838 15,9.075 15,7.125 C15,6.875 14.8285714,6.625 14.5714286,6.625 Z" id="路径" fill="#FF705B"></path>
            </g>
        </g>
    </g>
</svg>