<?xml version="1.0" encoding="UTF-8"?>
<svg width="16px" height="16px" viewBox="0 0 16 16" version="1.1" xmlns="http://www.w3.org/2000/svg" xmlns:xlink="http://www.w3.org/1999/xlink">
    <!-- Generator: Sketch 64 (93537) - https://sketch.com -->
    <title>编组</title>
    <desc>Created with Sketch.</desc>
    <g id="主页面" stroke="none" stroke-width="1" fill="none" fill-rule="evenodd">
        <g id="商品详情-目录" transform="translate(-315.000000, -997.000000)">
            <g id="编组" transform="translate(315.000000, 997.000000)">
                <path d="M11.7401989,1.03224661 C9.21335236,0.322526697 6.66991257,0.312490618 4.14907476,1.06576094 C3.21824338,1.34386956 2.46684975,1.83467325 1.90109016,2.53594912 C1.31828233,3.2583568 0.932835235,4.19804483 0.733204439,5.33993346 C0.421254141,7.12453417 0.424799269,8.90767709 0.729077907,10.6932346 C0.920281707,11.8139178 1.29620895,12.7315842 1.86165504,13.4477869 C2.4239834,14.1600406 3.17288156,14.6683014 4.0958522,14.986735 C5.3540914,15.420702 6.65003054,15.5033099 8.07949976,15.4982605 C9.16018771,15.5132202 10.353493,15.4343509 11.5246555,15.1066544 C12.5197728,14.8283631 13.3512026,14.3486785 13.9834272,13.6284363 C14.5952445,12.9314424 15.0182161,12.0135886 15.239792,10.8558482 C15.5715405,9.12106086 15.5748698,7.36851713 15.3133727,5.62066323 C15.1283309,4.38370345 14.7397865,3.3610804 14.1246092,2.57956179 C13.537164,1.83327394 12.7429549,1.31384838 11.7401989,1.03224661 Z" id="Fill-1备份-2" stroke="#FFB55B"></path>
                <path d="M6.56666667,6.7 L6.56666667,8.7 C6.56666667,9.25228475 7.01438192,9.7 7.56666667,9.7 C7.78303688,9.7 7.9935705,9.62982213 8.16666667,9.5 L9.5,8.5 C9.9418278,8.16862915 10.0313708,7.5418278 9.7,7.1 C9.64314575,7.02419433 9.57580567,6.95685425 9.5,6.9 L8.16666667,5.9 C7.72483887,5.56862915 7.09803752,5.6581722 6.76666667,6.1 C6.63684454,6.27309617 6.56666667,6.48362979 6.56666667,6.7 Z" id="路径-13" fill="#222222"></path>
            </g>
        </g>
    </g>
</svg>