<svg id="组件_16_1" data-name="组件 16 – 1" xmlns="http://www.w3.org/2000/svg" width="32" height="32" viewBox="0 0 32 32">
  <defs>
    <style>
      .cls-1 {
        fill: none;
      }

      .cls-2, .cls-3 {
        fill: #ffb55b;
      }

      .cls-3 {
        font-size: 12px;
        font-family: OPPOSans-B, OPPOSans;
      }
    </style>
  </defs>
  <path id="路径_93" data-name="路径 93" class="cls-1" d="M0,0H32V32H0Z"/>
  <path id="路径_94" data-name="路径 94" class="cls-2" d="M4.044,3.435,15,1,25.956,3.435A1.333,1.333,0,0,1,27,4.736V18.052a8,8,0,0,1-3.562,6.656L15,30.333,6.563,24.708A8,8,0,0,1,3,18.053V4.736a1.333,1.333,0,0,1,1.044-1.3ZM5.667,5.805V18.052a5.333,5.333,0,0,0,2.375,4.437L15,27.129l6.959-4.64a5.333,5.333,0,0,0,2.375-4.436V5.805L15,3.733Z" transform="translate(1 0.333)"/>
  <text id="保" class="cls-3" transform="translate(10 18.667)"><tspan x="0" y="0">保</tspan></text>
</svg>
