<?xml version="1.0" encoding="UTF-8"?>
<svg width="24px" height="24px" viewBox="0 0 24 24" version="1.1" xmlns="http://www.w3.org/2000/svg" xmlns:xlink="http://www.w3.org/1999/xlink">
    <title>时间管理-删除闹钟</title>
    <defs>
        <linearGradient x1="0%" y1="0%" x2="100%" y2="100%" id="linearGradient-1">
            <stop stop-color="#FFAD84" offset="0%"></stop>
            <stop stop-color="#FF754D" offset="100%"></stop>
        </linearGradient>
        <linearGradient x1="0%" y1="12.4444444%" x2="100%" y2="87.5555556%" id="linearGradient-2">
            <stop stop-color="#FFAD84" offset="0%"></stop>
            <stop stop-color="#FF754D" offset="100%"></stop>
        </linearGradient>
    </defs>
    <g id="主页面" stroke="none" stroke-width="1" fill="none" fill-rule="evenodd">
        <g id="搜索" transform="translate(-341.000000, -109.000000)">
            <g id="时间管理-删除闹钟" transform="translate(341.000000, 109.000000)">
                <rect id="矩形" fill-opacity="0" fill="#D8D8D8" x="0" y="0" width="24" height="24"></rect>
                <path d="M9.20666667,8.87333333 C9.20666667,10.4160487 10.4572846,11.6666667 12,11.6666667 C13.5427154,11.6666667 14.7933333,10.4160487 14.7933333,8.87333333 C14.7933333,7.33061793 13.5427154,6.08 12,6.08 C10.4572846,6.08 9.20666667,7.33061793 9.20666667,8.87333333 Z" id="路径" fill="url(#linearGradient-1)" fill-rule="nonzero"></path>
                <path d="M15.6666667,9.25333333 C16.4033333,9.25333333 17,9.85 17,10.5866667 L17,16.5866667 C17,17.3233333 16.4033333,17.92 15.6666667,17.92 L8.33333333,17.92 L8.33333333,17.92 C7.59666666,17.92 7,17.3233333 7,16.5866667 L7,10.5866667 C7,9.85 7.59666667,9.25333333 8.33333333,9.25333333 L15.6666667,9.25333333 Z M10.23,11.9033333 C9.76976271,11.9033333 9.39666667,12.2764294 9.39666667,12.7366667 L9.39666667,12.7366667 L9.39666667,15.07 C9.39666667,15.5302373 9.76976271,15.9033333 10.23,15.9033333 C10.6902373,15.9033333 11.0633333,15.5302373 11.0633333,15.07 L11.0633333,15.07 L11.0633333,12.7366667 C11.0633333,12.2764294 10.6902373,11.9033333 10.23,11.9033333 Z M13.77,11.9033334 C13.3097627,11.9033334 12.9366667,12.2764294 12.9366667,12.7366667 L12.9366667,12.7366667 L12.9366667,15.07 C12.9366667,15.5302373 13.3097627,15.9033334 13.77,15.9033334 C14.2302373,15.9033334 14.6033333,15.5302373 14.6033333,15.07 L14.6033333,15.07 L14.6033333,12.7366667 C14.6033333,12.2764294 14.2302373,11.9033334 13.77,11.9033334 Z" id="形状结合" fill="url(#linearGradient-2)" fill-rule="nonzero"></path>
                <path d="M17.4033333,10.2066677 L6.59666667,10.2066677 C6.08333333,10.2066677 5.66666667,9.79 5.66666667,9.27666667 L5.66666667,9.14 C5.66666667,8.62666667 6.08333334,8.21 6.59666667,8.21 L17.4,8.21 C17.9133333,8.21 18.3300118,8.62666667 18.3300118,9.14 L18.3300118,9.27666667 C18.3312432,9.52311914 18.2341188,9.75988502 18.0601616,9.93446804 C17.8862043,10.1090511 17.6497887,10.2070249 17.4033333,10.2066677 L17.4033333,10.2066677 Z" id="路径" fill-opacity="0.24" fill="#F1F1F1" fill-rule="nonzero"></path>
            </g>
        </g>
    </g>
</svg>