<?xml version="1.0" encoding="UTF-8"?>
<svg width="54px" height="2px" viewBox="0 0 54 2" version="1.1" xmlns="http://www.w3.org/2000/svg" xmlns:xlink="http://www.w3.org/1999/xlink">
    <!-- Generator: Sketch 64 (93537) - https://sketch.com -->
    <title>路径 15</title>
    <desc>Created with Sketch.</desc>
    <defs>
        <linearGradient x1="100%" y1="50%" x2="0%" y2="50%" id="linearGradient-1">
            <stop stop-color="#FFDB94" offset="0%"></stop>
            <stop stop-color="#FFB55B" offset="100%"></stop>
        </linearGradient>
    </defs>
    <g id="主页面" stroke="none" stroke-width="1" fill="none" fill-rule="evenodd">
        <g id="个人入驻" transform="translate(-66.000000, -117.000000)" fill="url(#linearGradient-1)" fill-rule="nonzero">
            <g id="路径-15" transform="translate(66.000000, 117.000000)">
                <path d="M0,2 L4,2 L4,0 L0,0 L0,2 Z M10,2 L14,2 L14,0 L10,0 L10,2 Z M20,2 L24,2 L24,0 L20,0 L20,2 Z M30,2 L34,2 L34,0 L30,0 L30,2 Z M40,2 L44,2 L44,0 L40,0 L40,2 Z M50,2 L54,2 L54,0 L50,0 L50,2 Z" id="路径-14"></path>
            </g>
        </g>
    </g>
</svg>