<?xml version="1.0" encoding="UTF-8"?>
<svg width="20px" height="20px" viewBox="0 0 20 20" version="1.1" xmlns="http://www.w3.org/2000/svg" xmlns:xlink="http://www.w3.org/1999/xlink">
    <title>删除</title>
    <g id="主页面" stroke="none" stroke-width="1" fill="none" fill-rule="evenodd">
        <g id="配送至" transform="translate(-333.000000, -230.000000)">
            <g id="删除" transform="translate(333.000000, 230.000000)">
                <rect id="矩形" fill="#D8D8D8" opacity="0" x="0" y="0" width="20" height="20"></rect>
                <path d="M9.65314564,2.24326119 C10.4553142,2.25640924 11.1350592,2.46757605 11.6525878,2.84110837 C12.2627604,3.28150755 12.6384879,3.94629118 12.7251314,4.73914971 L12.7251314,4.73914971 L13.6485178,4.85357696 C14.4110394,4.95999743 14.953058,5.09607016 15.4673189,5.3627141 C16.2703429,5.83034987 16.647608,6.40720581 16.7579354,7.02818778 C16.8677013,7.64600972 16.7119591,8.30606924 16.2567177,8.8303456 L16.2567177,8.8303456 L16.1207669,10.0155914 C16.1562878,10.8541293 16.1548663,11.2896295 16.1030216,11.9339724 L16.1030216,11.9339724 L16.0314847,12.699338 C15.9122585,13.8783449 15.5596001,14.8004948 14.9255832,15.4717349 C14.2900062,16.1446267 13.3804953,16.5570958 12.1942376,16.7576417 C11.6479596,16.849942 11.2107641,16.8877484 10.4744267,16.8989002 L10.4744267,16.8989002 L9.60187918,16.9012978 C8.84291772,16.8931543 8.34716101,16.8509592 7.80575097,16.7594815 C6.6194768,16.5589327 5.70998165,16.1464666 5.07441344,15.4735937 C4.44040485,14.8023719 4.08774835,13.8802544 3.96851785,12.7012054 C3.8711102,11.7399392 3.84066497,11.3002232 3.86072268,10.5386156 L3.86072268,10.5386156 L3.91167779,9.28181722 C3.24401321,8.16499991 3.13135936,7.5338969 3.25810468,6.94867874 C3.38622835,6.35709635 3.75831558,5.81330246 4.33976574,5.47133728 C4.96032421,5.10620766 5.60134002,4.94773058 6.56535328,4.82704494 L6.56535328,4.82704494 L7.24733189,4.74510622 C7.51719382,3.71042806 7.8266125,3.23557385 8.22882953,2.88435325 C8.63185034,2.53243079 9.12812813,2.30424752 9.65314564,2.24326119 Z" id="路径" stroke="#222222" fill="#FFFFFF" fill-rule="nonzero" transform="translate(10.000013, 9.555000) scale(-1, 1) translate(-10.000013, -9.555000) "></path>
                <rect id="矩形" fill="#999999" x="7.77777778" y="9" width="1.11111111" height="3.33333333" rx="0.5"></rect>
                <rect id="矩形备份-7" fill="#999999" x="11.1111111" y="9" width="1.11111111" height="3.33333333" rx="0.5"></rect>
            </g>
        </g>
    </g>
</svg>