<?xml version="1.0" encoding="UTF-8"?>
<svg width="24px" height="24px" viewBox="0 0 24 24" version="1.1" xmlns="http://www.w3.org/2000/svg" xmlns:xlink="http://www.w3.org/1999/xlink">
    <!-- Generator: Sketch 64 (93537) - https://sketch.com -->
    <title>编组</title>
    <desc>Created with Sketch.</desc>
    <g id="主页面" stroke="none" stroke-width="1" fill="none" fill-rule="evenodd">
        <g id="填写机构信息" transform="translate(-170.000000, -385.000000)">
            <g id="编组" transform="translate(170.000000, 385.000000)">
                <rect id="矩形" fill-opacity="0.01" fill="#FFFFFF" fill-rule="nonzero" x="0" y="0" width="24" height="24"></rect>
                <path d="M2.5,9.5 L21.5,9.5 L21.5,20 C21.5,20.5523 21.0523,21 20.5,21 L3.5,21 C2.947715,21 2.5,20.5523 2.5,20 L2.5,9.5 Z" id="路径" stroke="#222222" stroke-linejoin="round"></path>
                <path d="M2.5,4.5 C2.5,3.947715 2.947715,3.5 3.5,3.5 L20.5,3.5 C21.0523,3.5 21.5,3.947715 21.5,4.5 L21.5,9.5 L2.5,9.5 L2.5,4.5 Z" id="路径" stroke="#222222" stroke-linejoin="round"></path>
                <line x1="8" y1="2" x2="8" y2="6" id="路径" stroke="#FFB55B" stroke-linecap="round" stroke-linejoin="round"></line>
                <line x1="16" y1="2" x2="16" y2="6" id="路径" stroke="#FFB55B" stroke-linecap="round" stroke-linejoin="round"></line>
                <line x1="14" y1="17" x2="17" y2="17" id="路径" stroke="#FFB55B" stroke-linecap="round" stroke-linejoin="round"></line>
                <line x1="7" y1="17" x2="10" y2="17" id="路径" stroke="#FFB55B" stroke-linecap="round" stroke-linejoin="round"></line>
                <line x1="14" y1="13" x2="17" y2="13" id="路径" stroke="#FFB55B" stroke-linecap="round" stroke-linejoin="round"></line>
                <line x1="7" y1="13" x2="10" y2="13" id="路径" stroke="#FFB55B" stroke-linecap="round" stroke-linejoin="round"></line>
            </g>
        </g>
    </g>
</svg>