<?xml version="1.0" encoding="UTF-8"?>
<svg width="20px" height="20px" viewBox="0 0 20 20" version="1.1" xmlns="http://www.w3.org/2000/svg" xmlns:xlink="http://www.w3.org/1999/xlink">
    <title>编组</title>
    <g id="主页面" stroke="none" stroke-width="1" fill="none" fill-rule="evenodd">
        <g id="配送至" transform="translate(-22.000000, -343.000000)">
            <g id="编组备份" transform="translate(22.000000, 343.000000)">
                <rect id="矩形" fill-opacity="0.01" fill="#FFFFFF" fill-rule="nonzero" x="0" y="0" width="20" height="20"></rect>
                <path d="M4.10744167,13.6489167 C2.59940833,14.1013333 1.66666667,14.7263333 1.66666667,15.4166667 C1.66666667,16.797375 5.397625,17.9166667 10,17.9166667 L10,17.9166667 C14.602375,17.9166667 18.3333333,16.797375 18.3333333,15.4166667 C18.3333333,14.7263333 17.4005833,14.1013333 15.8925417,13.6489167" id="路径" stroke="#EA5050" stroke-linecap="round" stroke-linejoin="round"></path>
                <path d="M10,14.5833333 C10,14.5833333 15.4166667,11.0433333 15.4166667,6.95075 C15.4166667,4.03243333 12.9915417,1.66666667 10,1.66666667 C7.00845833,1.66666667 4.58333333,4.03243333 4.58333333,6.95075 C4.58333333,11.0433333 10,14.5833333 10,14.5833333 Z" id="路径" stroke="#EA5050" stroke-linejoin="round"></path>
                <path d="M10,9.16666667 C11.1505833,9.16666667 12.0833333,8.23391667 12.0833333,7.08333333 C12.0833333,5.93275 11.1505833,5 10,5 C8.84941667,5 7.91666667,5.93275 7.91666667,7.08333333 C7.91666667,8.23391667 8.84941667,9.16666667 10,9.16666667 Z" id="路径" stroke="#EA5050" stroke-linejoin="round"></path>
            </g>
        </g>
    </g>
</svg>