<?xml version="1.0" encoding="UTF-8"?>
<svg width="24px" height="24px" viewBox="0 0 24 24" version="1.1" xmlns="http://www.w3.org/2000/svg" xmlns:xlink="http://www.w3.org/1999/xlink">
    <!-- Generator: Sketch 64 (93537) - https://sketch.com -->
    <title>收藏</title>
    <desc>Created with Sketch.</desc>
    <g id="主页面" stroke="none" stroke-width="1" fill="none" fill-rule="evenodd">
        <g id="商品详情-参与拼团" transform="translate(-98.000000, -732.000000)" fill-rule="nonzero">
            <g id="收藏" transform="translate(98.000000, 732.000000)">
                <rect id="矩形" fill="#000000" opacity="0" x="0" y="0" width="24" height="24"></rect>
                <g id="编组" transform="translate(3.000000, 4.000000)" fill="#FFFFFF" stroke="#222222" stroke-width="1.5">
                    <path d="M15.189382,1.96899945 C14.3767107,1.15632817 13.311559,0.75 12.2464092,0.75 C11.1812594,0.75 10.1161076,1.15632817 9.30344389,1.9689919 L3.00565506,8.83444937 L8.89148894,14.152972 L15.1894314,7.85508414 C16.0021178,7.04235147 16.4084841,5.97716617 16.4084757,4.91198569 C16.4084673,3.84683825 16.0021073,2.78170161 15.189382,1.96899945 Z" id="路径"></path>
                    <path d="M7.85505229,1.96904655 C7.04236776,1.15636203 5.97723337,0.750016762 4.91208558,0.750000001 C3.84691397,0.749983239 2.78173069,1.15631157 1.96898217,1.96896746 C1.15633156,2.78161807 0.75,3.84675916 0.75,4.91189616 C0.75,5.97704884 1.1563426,7.04219803 1.96901239,7.85486782 L8.83449229,14.1529075 L14.1529827,8.26697693 L7.85505229,1.96904655 Z" id="路径"></path>
                </g>
            </g>
        </g>
    </g>
</svg>