<svg xmlns="http://www.w3.org/2000/svg" width="18" height="18" viewBox="0 0 18 18">
  <defs>
    <style>
      .cls-1 {
        fill: none;
      }

      .cls-2 {
        fill: #fff;
      }
    </style>
  </defs>
  <g id="组_427" data-name="组 427" transform="translate(-328 -226)">
    <g id="组_421" data-name="组 421" transform="translate(328 226)">
      <path id="路径_123" data-name="路径 123" class="cls-1" d="M0,0H18V18H0Z"/>
      <path id="路径_124" data-name="路径 124" class="cls-2" d="M6,5V2.75A.75.75,0,0,1,6.75,2h9a.75.75,0,0,1,.75.75v10.5a.75.75,0,0,1-.75.75H13.5v2.25a.752.752,0,0,1-.755.75H3.755A.751.751,0,0,1,3,16.25L3,5.75A.752.752,0,0,1,3.757,5ZM4.5,6.5l0,9H12v-9ZM7.5,5h6v7.5H15v-9H7.5ZM6,8.75h4.5v1.5H6Zm0,3h4.5v1.5H6Z" transform="translate(-0.75 -0.5)"/>
    </g>
  </g>
</svg>
