<?xml version="1.0" encoding="UTF-8"?>
<svg width="24px" height="24px" viewBox="0 0 24 24" version="1.1" xmlns="http://www.w3.org/2000/svg" xmlns:xlink="http://www.w3.org/1999/xlink">
    <!-- Generator: Sketch 64 (93537) - https://sketch.com -->
    <title>QQ</title>
    <desc>Created with Sketch.</desc>
    <g id="主页面" stroke="none" stroke-width="1" fill="none" fill-rule="evenodd">
        <g id="联系客服" transform="translate(-10.000000, -152.000000)" fill-rule="nonzero">
            <g id="QQ" transform="translate(10.000000, 152.000000)">
                <rect id="矩形" fill="#000000" opacity="0" x="0" y="0" width="24" height="24"></rect>
                <path d="M12.06,3.5 C10.836017,3.5 9.69877782,3.97336701 8.87309313,4.74661578 C8.06387849,5.50444043 7.53855623,6.54584672 7.55210416,8.1308379 C7.56308281,8.35489553 7.57643067,8.61580664 7.55617478,8.94789262 C6.22436329,10.2627658 5.5,11.9837751 5.5,13.8823529 C5.5,14.3444875 5.6915029,14.7654076 6.00246429,15.0702717 C6.29626252,15.3583092 6.69653708,15.5421109 7.37606377,15.6950878 C7.1804614,15.8868936 7.04752592,16.1208138 6.97716683,16.3737386 C6.88508949,16.7047356 6.90151827,17.0701875 7.032997,17.4139228 C7.16234475,17.7520868 7.38063638,18.0243462 7.66156037,18.2127885 C7.93287589,18.3947855 8.26492865,18.5 8.64,18.5 L15.36,18.5 C15.7029341,18.5 16.0462858,18.393759 16.3335688,18.2010511 C16.6146159,18.0125262 16.8412878,17.74259 16.967003,17.4139228 C17.1024413,17.0598357 17.1025882,16.6830284 16.962853,16.3177076 C16.8825345,16.1077247 16.7538415,15.8995912 16.8,15.5588235 C17.2663593,15.5588235 17.6902035,15.3715778 17.9975357,15.0702717 C18.3084971,14.7654076 18.5,14.3444875 18.5,13.8823529 C18.5,12.0174711 17.805308,10.3202728 16.3416721,8.79780623 C16.4202863,8.47327391 16.46,8.1291688 16.46,7.82352941 C16.46,6.62512347 15.9680592,5.54298663 15.1700357,4.76061064 C14.3756244,3.98177604 13.2773051,3.5 12.06,3.5 Z" id="路径" stroke="#222222" fill="#FFB55B"></path>
            </g>
        </g>
    </g>
</svg>