<?xml version="1.0" encoding="UTF-8"?>
<svg width="24px" height="24px" viewBox="0 0 24 24" version="1.1" xmlns="http://www.w3.org/2000/svg" xmlns:xlink="http://www.w3.org/1999/xlink">
    <!-- Generator: Sketch 64 (93537) - https://sketch.com -->
    <title>星星</title>
    <desc>Created with Sketch.</desc>
    <g id="主页面" stroke="none" stroke-width="1" fill="none" fill-rule="evenodd">
        <g id="随机练习" transform="translate(-341.000000, -54.000000)" fill-rule="nonzero">
            <g id="星星" transform="translate(341.000000, 54.000000)">
                <rect id="矩形" fill="#000000" opacity="0" x="0" y="0" width="23.011236" height="23.011236"></rect>
                <path d="M11.5222221,4.88462501 C11.3884616,4.97252477 11.2792843,5.10733745 11.2040778,5.28628766 L10.6417815,6.4108804 C9.85601008,7.89093179 8.42641967,8.92499071 6.75186143,9.17124928 L5.52947438,9.33988451 C5.35205695,9.3686212 5.19894349,9.4406516 5.07709401,9.54323635 C4.9450528,9.65440147 4.84969614,9.79987231 4.79690041,9.9582595 C4.74557849,10.1122253 4.73420112,10.2792192 4.77332383,10.4392667 C4.80937712,10.5867574 4.88947225,10.7267124 5.01498567,10.8449747 L5.90237371,11.7323628 C7.13860276,12.9227354 7.67759378,14.6074986 7.38064337,16.2407259 L7.17092031,17.4573032 C7.12845751,17.723042 7.21046254,17.9720864 7.36886781,18.1548617 C7.54189753,18.3545114 7.80017087,18.4781144 8.07696776,18.4781144 C8.21699921,18.4781144 8.35312306,18.4198157 8.4910653,18.3512583 L9.5871466,17.7610607 C10.3750852,17.3653106 11.1632717,17.170437 12,17.170437 C12.8309313,17.170437 13.6136449,17.3638062 14.3962953,17.7099617 L15.5573908,18.3351669 C15.6789825,18.426092 15.8032201,18.4359312 15.9230322,18.4359312 C16.1998291,18.4359312 16.4581025,18.3123283 16.6311322,18.1126786 C16.7895375,17.9299033 16.8715425,17.6808588 16.8275943,17.4061827 L16.618164,16.1918089 C16.3224044,14.5653051 16.8613972,12.8805522 18.0976263,11.6901796 L18.9850143,10.8027916 C19.1105278,10.6845293 19.1906229,10.5445743 19.2266762,10.3970836 C19.2657989,10.2370361 19.2544215,10.0700421 19.2030996,9.91607637 C19.1503039,9.75768918 19.0549472,9.61221834 18.922906,9.50105322 C18.8010583,9.39846997 18.6479475,9.32644017 18.4705334,9.29770263 L17.254781,9.13001265 C15.5691619,8.88215781 14.0935829,7.839426 13.3539704,6.36020103 L12.8004279,5.2531159 C12.7258586,5.08962268 12.6164309,4.9657891 12.4852979,4.88336267 C12.3389886,4.79139685 12.1689476,4.75 11.5222221,4.88462501 Z" id="路径" stroke="#222222" stroke-width="1.5" fill="#FFFFFF"></path>
            </g>
        </g>
    </g>
</svg>